<svg width="632" height="134" viewBox="0 0 632 134" fill="none" xmlns="http://www.w3.org/2000/svg">
<path d="M171 92.2732V34.9421H209.449V44.2281H181.658V60.1086H206.077V69.3946H181.658V92.2732H171Z" fill="#06123C"/>
<path d="M215.385 92.2732V34H225.504V92.2732H215.385Z" fill="#06123C"/>
<path d="M255.319 93.2153C251.271 93.2153 247.494 92.2732 244.121 90.3891C240.748 88.505 238.05 85.948 236.026 82.5835C234.003 79.3536 233.058 75.5853 233.058 71.4133C233.058 67.2413 234.003 63.4731 236.026 60.2432C238.05 57.0132 240.748 54.3216 243.986 52.4375C247.359 50.5534 251.001 49.6113 255.184 49.6113C259.366 49.6113 263.143 50.5534 266.381 52.4375C269.754 54.3216 272.317 56.8786 274.341 60.1086C276.364 63.3385 277.309 67.1067 277.309 71.4133C277.309 75.5853 276.364 79.3536 274.341 82.5835C272.317 85.8134 269.619 88.505 266.381 90.3891C263.143 92.2732 259.366 93.2153 255.319 93.2153ZM255.319 83.9293C257.612 83.9293 259.636 83.391 261.389 82.3143C263.143 81.2377 264.492 79.7573 265.437 77.8732C266.381 75.989 266.921 73.8358 266.921 71.4133C266.921 68.9909 266.381 66.8376 265.437 64.9535C264.492 63.0693 263.008 61.589 261.389 60.5123C259.636 59.4357 257.612 58.8974 255.319 58.8974C253.025 58.8974 251.001 59.4357 249.248 60.5123C247.494 61.589 246.145 63.0693 245.065 64.9535C243.986 66.8376 243.581 68.9909 243.581 71.4133C243.581 73.8358 244.121 75.989 245.065 77.8732C246.01 79.7573 247.494 81.2377 249.248 82.3143C251.001 83.391 253.025 83.9293 255.319 83.9293Z" fill="#06123C"/>
<path d="M295.657 92.2732L281.221 50.4188H291.879L302.402 82.1797L298.759 82.0452L309.957 50.2842H318.861L330.058 82.0452L326.416 82.1797L336.939 50.4188H347.597L333.161 92.2732H324.122L312.655 59.1665H316.028L304.426 92.2732H295.657Z" fill="#06123C"/>
<path d="M389.958 93.2153C385.506 93.2153 381.594 92.2732 378.221 90.3891C374.848 88.505 372.15 85.948 370.127 82.7181C368.238 79.4881 367.159 75.8545 367.159 71.6825V34.9421H377.682V71.2787C377.682 73.7012 378.221 75.7199 379.3 77.604C380.38 79.4881 381.864 80.9685 383.618 82.0452C385.371 83.1218 387.53 83.6601 389.958 83.6601C392.387 83.6601 394.545 83.1218 396.299 82.0452C398.053 80.9685 399.537 79.4881 400.616 77.604C401.696 75.7199 402.235 73.5666 402.235 71.2787V34.9421H412.758V71.817C412.758 75.8545 411.814 79.6227 409.79 82.8526C407.901 86.0826 405.203 88.6396 401.696 90.5237C398.323 92.2732 394.41 93.2153 389.958 93.2153Z" fill="#06123C"/>
<path d="M422.202 107.615V50.4188H431.78V58.7628L430.836 56.7441C432.32 54.4562 434.209 52.7067 436.637 51.4954C439.065 50.2842 441.899 49.6113 445.136 49.6113C449.049 49.6113 452.691 50.5534 455.794 52.5721C459.032 54.4562 461.46 57.1478 463.349 60.3777C465.238 63.6077 466.182 67.3759 466.182 71.4133C466.182 75.4507 465.238 79.219 463.349 82.4489C461.46 85.8134 459.032 88.3704 455.794 90.3891C452.556 92.2733 449.049 93.2153 444.867 93.2153C441.899 93.2153 439.065 92.677 436.502 91.4658C433.939 90.2546 431.915 88.505 430.431 86.2171L432.05 84.1984V107.615H422.202ZM444.057 83.9293C446.351 83.9293 448.374 83.391 450.128 82.3143C451.882 81.2377 453.366 79.7573 454.31 77.8732C455.39 75.989 455.794 73.8358 455.794 71.2787C455.794 68.8563 455.255 66.703 454.31 64.8189C453.231 62.9348 451.882 61.4544 450.128 60.3777C448.374 59.3011 446.351 58.7628 444.057 58.7628C441.899 58.7628 439.875 59.3011 438.121 60.3777C436.367 61.4544 435.018 62.9348 433.939 64.8189C432.86 66.703 432.455 68.8563 432.455 71.2787C432.455 73.7012 432.995 75.8545 433.939 77.8732C434.883 79.8919 436.367 81.2377 438.121 82.3143C439.875 83.391 441.899 83.9293 444.057 83.9293Z" fill="#06123C"/>
<path d="M474.007 92.2732V34H484.125V92.2732H474.007Z" fill="#06123C"/>
<path d="M514.075 93.2153C510.028 93.2153 506.25 92.2732 502.878 90.3891C499.505 88.505 496.807 85.948 494.783 82.5835C492.759 79.3536 491.815 75.5853 491.815 71.4133C491.815 67.2413 492.759 63.4731 494.783 60.2432C496.807 57.0132 499.505 54.3216 502.743 52.4375C506.116 50.5534 509.758 49.6113 513.94 49.6113C518.122 49.6113 521.9 50.5534 525.138 52.4375C528.511 54.3216 531.074 56.8786 533.097 60.1086C535.121 63.3385 536.065 67.1067 536.065 71.4133C536.065 75.5853 535.121 79.3536 533.097 82.5835C531.074 85.8134 528.376 88.505 525.138 90.3891C521.9 92.2732 518.123 93.2153 514.075 93.2153ZM514.075 83.9293C516.369 83.9293 518.392 83.391 520.146 82.3143C521.9 81.2377 523.249 79.7573 524.193 77.8732C525.138 75.989 525.677 73.8358 525.677 71.4133C525.677 68.9909 525.138 66.8376 524.193 64.9535C523.249 63.0693 521.765 61.589 520.146 60.5123C518.392 59.4357 516.369 58.8974 514.075 58.8974C511.782 58.8974 509.758 59.4357 508.004 60.5123C506.25 61.589 504.901 63.0693 503.822 64.9535C502.743 66.8376 502.338 68.9909 502.338 71.4133C502.338 73.8358 502.878 75.989 503.822 77.8732C504.766 79.7573 506.25 81.2377 508.004 82.3143C509.758 83.391 511.782 83.9293 514.075 83.9293Z" fill="#06123C"/>
<path d="M556.572 93.2153C553.604 93.2153 551.04 92.677 548.882 91.7349C546.723 90.7929 544.97 89.3125 543.89 87.5629C542.676 85.6788 542.136 83.6601 542.136 81.2377C542.136 78.9498 542.676 76.9311 543.755 75.047C544.835 73.1629 546.454 71.6825 548.612 70.4712C550.771 69.26 553.469 68.318 556.842 67.9142L570.467 65.6264V73.2974L558.73 75.3161C556.707 75.7199 555.223 76.2582 554.278 77.2003C553.334 78.1423 552.794 79.3535 552.794 80.8339C552.794 82.3143 553.334 83.391 554.413 84.1984C555.493 85.0059 556.842 85.4097 558.595 85.4097C560.754 85.4097 562.508 85.0059 564.127 84.0639C565.746 83.1218 566.96 81.9106 567.904 80.2956C568.714 78.6806 569.253 76.9311 569.253 75.1816V64.2806C569.253 62.531 568.579 61.0506 567.23 59.8394C565.881 58.6282 563.992 58.0899 561.698 58.0899C559.54 58.0899 557.651 58.6282 555.897 59.8394C554.278 61.0506 553.064 62.531 552.255 64.4151L544.025 60.3777C544.835 58.2244 546.184 56.2057 547.938 54.5908C549.691 52.9758 551.85 51.7646 554.278 50.8225C556.707 49.8805 559.27 49.4767 562.103 49.4767C565.611 49.4767 568.579 50.1496 571.142 51.3609C573.705 52.5721 575.864 54.3216 577.213 56.6095C578.697 58.8973 579.372 61.4544 579.372 64.4151V92.2732H569.793V85.1405L571.951 85.0059C570.872 86.7555 569.523 88.2358 568.039 89.4471C566.555 90.6583 564.801 91.6003 562.913 92.2732C561.024 92.9461 558.865 93.2153 556.572 93.2153Z" fill="#06123C"/>
<path d="M608.107 93.2153C604.06 93.2153 600.417 92.2732 597.18 90.3891C593.942 88.505 591.378 85.8134 589.625 82.4489C587.736 79.0844 586.792 75.4507 586.792 71.4133C586.792 67.3759 587.736 63.6077 589.625 60.3777C591.513 57.1478 594.077 54.4562 597.18 52.5721C600.417 50.688 603.925 49.6113 607.972 49.6113C611.21 49.6113 614.043 50.2842 616.472 51.4954C618.9 52.7067 620.924 54.4562 622.408 56.7441L620.924 58.7628V34H631.042V92.2732H621.463V84.1984L622.543 86.2171C621.059 88.505 619.035 90.2545 616.472 91.4658C613.908 92.677 611.075 93.2153 608.107 93.2153ZM609.187 83.9293C611.48 83.9293 613.504 83.391 615.257 82.3143C617.011 81.2377 618.36 79.7573 619.44 77.8732C620.519 75.989 620.924 73.8358 620.924 71.2787C620.924 68.8563 620.384 66.703 619.44 64.8189C618.495 62.9348 617.011 61.4544 615.257 60.3777C613.504 59.3011 611.48 58.7628 609.187 58.7628C606.893 58.7628 604.869 59.3011 603.116 60.3777C601.362 61.4544 599.878 62.9348 598.933 64.8189C597.989 66.703 597.449 68.8563 597.449 71.2787C597.449 73.7012 597.989 75.8545 598.933 77.8732C599.878 79.8919 601.362 81.2377 603.116 82.3143C604.869 83.391 606.893 83.9293 609.187 83.9293Z" fill="#06123C"/>
<path d="M113.791 75.8592L85.3142 92.2627C79.5263 85.9092 77.5584 71.0075 68.7607 71.123C57.5321 71.123 57.5321 95.0351 46.3035 95.0351C35.0749 95.0351 35.0749 71.123 23.8463 71.123C12.6177 71.123 12.6177 95.0351 1.3891 95.0351C0.926064 95.0351 0.578788 95.0351 0.115753 94.9195V48.4816C2.7782 53.9109 5.55641 58.7627 10.534 58.7627C21.7626 58.7627 21.7626 34.8506 32.9912 34.8506C44.2198 34.8506 44.2198 58.7627 55.4484 58.7627C65.5195 58.7627 66.5613 39.2402 74.8959 35.4282L113.791 57.8385C120.736 61.8816 120.736 71.8161 113.791 75.8592Z" fill="#5376F8"/>
<path d="M69.571 32.4247L15.6274 1.35059C13.3123 0.0798974 10.8813 -0.266654 8.56615 0.195415C10.8813 -0.266654 13.428 0.0798974 15.7432 1.35059L69.571 32.4247Z" fill="url(#paint0_linear_4_54)"/>
<path d="M85.3142 92.2627L81.6099 94.342L15.7432 132.347C8.79766 136.39 0.115753 131.308 0.115753 123.337V94.9196C0.578788 95.0351 0.926064 95.0351 1.3891 95.0351C12.6177 95.0351 12.6177 71.123 23.8463 71.123C35.0749 71.123 35.0749 95.0351 46.3035 95.0351C57.5321 95.0351 57.5321 71.123 68.7607 71.123C77.5584 71.0075 79.5263 85.9092 85.3142 92.2627Z" fill="#172A69"/>
<path d="M81.6099 94.4575L15.6274 132.578C8.68191 136.621 0 131.539 0 123.568V94.9196H0.115759V123.337C0.115759 131.307 8.79767 136.39 15.7432 132.347L81.6099 94.4575Z" fill="url(#paint1_linear_4_54)"/>
<path d="M74.8959 35.4282C66.5613 39.2402 65.5195 58.7627 55.4484 58.7627C44.2198 58.7627 44.2198 34.8506 32.9912 34.8506C21.7626 34.8506 21.7626 58.7627 10.534 58.7627C5.55641 58.7627 2.7782 53.9109 0.115753 48.4816V10.3609C0.115753 5.97128 2.66245 2.50576 6.13521 0.888518C6.25097 0.773001 6.48248 0.773001 6.59824 0.657484C6.714 0.657484 6.82976 0.541966 7.06128 0.541966C7.40855 0.426449 7.64007 0.310932 7.98735 0.310932C8.21887 0.310932 8.45038 0.195415 8.56614 0.195415C10.8813 -0.266654 13.3123 0.0798974 15.6274 1.35059L69.571 32.4247L74.8959 35.4282Z" fill="#B1C3FF"/>
<path d="M6.13521 0.888519C2.66245 2.50576 0.115759 6.0868 0.115759 10.3609V48.4816C0.115759 48.4816 0 48.3661 0 48.2506V10.3609C0 5.97128 2.66245 2.50576 6.13521 0.888519Z" fill="url(#paint2_linear_4_54)"/>
<defs>
<linearGradient id="paint0_linear_4_54" x1="11.8576" y1="-0.13791" x2="64.234" y2="31.5963" gradientUnits="userSpaceOnUse">
<stop stop-color="#E6E2F4"/>
<stop offset="0.5774" stop-color="#94A8F3"/>
<stop offset="1" stop-color="#567CF2"/>
</linearGradient>
<linearGradient id="paint1_linear_4_54" x1="13.6385" y1="82.1551" x2="51.5661" y2="122.599" gradientUnits="userSpaceOnUse">
<stop stop-color="#E6E2F4"/>
<stop offset="0.138" stop-color="#C3C9F4"/>
<stop offset="0.3207" stop-color="#9CAEF3"/>
<stop offset="0.5014" stop-color="#7E98F3"/>
<stop offset="0.6773" stop-color="#6889F2"/>
<stop offset="0.8461" stop-color="#5A7FF2"/>
<stop offset="1" stop-color="#567CF2"/>
</linearGradient>
<linearGradient id="paint2_linear_4_54" x1="3.85824" y1="46.2412" x2="2.17208" y2="-1.13398" gradientUnits="userSpaceOnUse">
<stop stop-color="#E6E2F4"/>
<stop offset="0.3738" stop-color="#B5C3F7"/>
<stop offset="0.7927" stop-color="#83A4FB"/>
<stop offset="1" stop-color="#7098FC"/>
</linearGradient>
</defs>
</svg>
